<?xml version="1.0" encoding="UTF-8" standalone="no"?>
<!DOCTYPE svg PUBLIC "-//W3C//DTD SVG 1.1//EN" "http://www.w3.org/Graphics/SVG/1.1/DTD/svg11.dtd">
<!-- Generiert durch Microsoft Visio, SVG Export link.svg Zeichenblatt-6 -->
<svg xmlns="http://www.w3.org/2000/svg" xmlns:xlink="http://www.w3.org/1999/xlink" xmlns:ev="http://www.w3.org/2001/xml-events"
		xmlns:v="http://schemas.microsoft.com/visio/2003/SVGExtensions/" width="1.2336in" height="1.2707in"
		viewBox="0 0 88.8192 91.4904" xml:space="preserve" color-interpolation-filters="sRGB" class="st2">
	<v:documentProperties v:langID="1031"/>

	<style type="text/css">
	<![CDATA[
		.st1 {fill:#000000;stroke:none;stroke-linecap:round;stroke-linejoin:round;stroke-width:0.75}
		.st2 {fill:none;fill-rule:evenodd;font-size:12px;overflow:visible;stroke-linecap:square;stroke-miterlimit:3}
	]]>
	</style>

	<g v:mID="0" v:index="1" v:groupContext="foregroundPage">
		<title>Zeichenblatt-6</title>
		<v:pageProperties v:drawingScale="1" v:pageScale="1" v:drawingUnits="19" v:shadowOffsetX="9" v:shadowOffsetY="-9"/>
		<g id="group1-1" transform="translate(18.375,-18.375)" v:mID="1" v:groupContext="group">
			<title>Zeichenblatt-2</title>
			<g id="group2-2" v:mID="2" v:groupContext="group">
				<title>Tabelle.1</title>
				<g id="group3-3" v:mID="3" v:groupContext="group">
					<title>Capa_1</title>
					<g id="shape4-4" v:mID="4" v:groupContext="shape">
						<title>Tabelle.37</title>
						<path d="M18.58 37.5 L21.68 37.5 L24.78 39.09 L26.33 42.26 L30.97 45.46 L37.19 45.46 L40.26 48.61 L40.26
									 88.32 L37.17 91.49 L3.09 91.49 L0 88.32 L0 48.61 L3.07 45.46 L9.29 45.46 L13.94 42.26 L15.49
									 39.09 L18.58 37.5 ZM7.74 54.57 L32.52 54.57 L32.52 50.2 L36.01 50.2 L36.01 86.73 L4.26 86.73
									 L4.26 50.2 L7.74 50.2 L7.74 54.57 ZM20.13 46.23 L21.78 45.64 L22.36 44.05 L21.78 42.26 L20.13
									 41.47 L18.49 42.26 L17.91 44.05 L18.49 45.64 L20.13 46.23 Z" class="st1"/>
					</g>
				</g>
			</g>
		</g>
		<g id="shape5-6" v:mID="5" v:groupContext="shape" transform="translate(27.3764,-45.366)">
			<title>Tabelle.10</title>
			<rect x="0" y="86.9904" width="22.5" height="4.5" class="st1"/>
		</g>
		<g id="shape6-8" v:mID="6" v:groupContext="shape" transform="translate(27.3764,-36.366)">
			<title>Tabelle.11</title>
			<rect x="0" y="86.9904" width="22.5" height="4.5" class="st1"/>
		</g>
		<g id="shape7-10" v:mID="7" v:groupContext="shape" transform="translate(27.3764,-27.366)">
			<title>Tabelle.12</title>
			<rect x="0" y="86.9904" width="15.3281" height="4.5" class="st1"/>
		</g>
	</g>
</svg>
